<?xml version="1.0" encoding="UTF-8"?>
<svg width="74px" height="23px" viewBox="0 0 74 23" version="1.1" xmlns="http://www.w3.org/2000/svg" xmlns:xlink="http://www.w3.org/1999/xlink">
    <!-- Generator: Sketch 63 (92445) - https://sketch.com -->
    <title>logo with shadow</title>
    <desc>Created with Sketch.</desc>
    <g id="Page-1" stroke="none" stroke-width="1" fill="none" fill-rule="evenodd">
        <g id="logo-with-shadow" fill-rule="nonzero">
            <g id="Group" transform="translate(19.856053, 5.615853)" fill="#FFFFFF">
                <g transform="translate(20.340500, 0.000000)" id="Shape">
                    <polygon points="13.7693583 0.000569356437 11.6296167 12.6297857 8.30940717 12.6297857 6.9074318 6.91060025 5.48706713 12.6297857 2.16675312 12.6297857 0.0270114652 0.000569356437 2.92311769 0.000569356437 4.06670245 8.19137486 5.78234082 1.58822708 8.01423796 1.58822708 9.72966735 8.19137486 10.8733566 0.000569356437"></polygon>
                    <path d="M20.4839615,10.031856 L16.757829,10.031856 L16.0568413,12.6297857 L13.4005274,12.6297857 L17.163543,0.000569356437 L20.0597537,0.000569356437 L23.8227693,12.6297857 L21.1849492,12.6297857 L20.4839615,10.031856 Z M19.8382462,7.68623891 L18.6207908,3.13991316 L17.384946,7.68623891 L19.8382462,7.68623891 Z"></path>
                </g>
                <path d="M8.56157875,3.62706328 L8.56157875,2.04451517 C8.56157875,0.91580253 7.62602297,0.000671548618 6.47188525,0.000671548618 L2.11069492,0.000671548618 C0.9565572,0.000671548618 0.0210014197,0.91580253 0.0210014197,2.04451517 L0.0210014197,5.40817081 C0.0210014197,6.53698564 0.9565572,7.45201443 2.11069492,7.45201443 L5.40143976,7.45201443 C5.68992195,7.45201443 5.92386313,7.68072053 5.92386313,7.96297533 L5.92386313,9.7735142 C5.92386313,10.055769 5.68992195,10.2844751 5.40143976,10.2844751 L3.1812449,10.2844751 C2.89265823,10.2844751 2.65882152,10.055769 2.65882152,9.7735142 L2.65882152,8.87718658 L0.0210014197,8.87718658 L0.0210014197,10.5861464 C0.0210014197,11.7149613 0.9565572,12.62999 2.11069492,12.62999 L6.47188525,12.62999 C7.62602297,12.62999 8.56157875,11.7149613 8.56157875,10.5861464 L8.56157875,7.15054749 C8.56157875,6.02173266 7.62602297,5.10670387 6.47188525,5.10670387 L3.1812449,5.10670387 C2.89265823,5.10670387 2.65882152,4.87789558 2.65882152,4.59574297 L2.65882152,2.85724958 C2.65882152,2.57509697 2.89265823,2.34628868 3.1812449,2.34628868 L5.40143976,2.34628868 C5.68992195,2.34628868 5.92386313,2.57509697 5.92386313,2.85724958 L5.92386313,3.62726767 L8.56157875,3.62726767 L8.56157875,3.62706328 Z" id="Shape"></path>
                <path d="M16.9678933,0.000569356437 L12.6067029,0.000569356437 C11.4525652,0.000569356437 10.5170094,0.915700337 10.5170094,2.04441298 L10.5170094,10.585942 C10.5170094,11.7147569 11.4525652,12.6297857 12.6067029,12.6297857 L15.2576881,12.6297857 L15.9770651,14.3075769 L18.319716,14.3075769 L17.5637694,12.544353 C18.4274397,12.293369 19.0576913,11.5121098 19.0576913,10.585942 L19.0576913,2.04441298 C19.0575868,0.915700337 18.1219265,0.000569356437 16.9678933,0.000569356437 Z M13.1547251,9.77341201 L13.1547251,2.8570452 C13.1547251,2.57489259 13.3885618,2.34608429 13.6771484,2.34608429 L15.8972388,2.34608429 C16.1858255,2.34608429 16.4196622,2.57489259 16.4196622,2.8570452 L16.4196622,9.77341201 C16.4196622,10.0556668 16.1858255,10.2843729 15.8972388,10.2843729 L13.6771484,10.2843729 C13.3886663,10.2843729 13.1547251,10.0555646 13.1547251,9.77341201 Z" id="Shape"></path>
                <path d="M45.5099719,0.000569356437 L45.5099719,12.6297857 L51.9608558,12.6297857 C53.1149935,12.6297857 54.0505493,11.7147569 54.0505493,10.585942 L54.0505493,2.04441298 C54.0505493,0.915700337 53.1149935,0.000569356437 51.9608558,0.000569356437 L45.5099719,0.000569356437 Z M51.4128337,9.77341201 C51.4128337,10.0556668 51.178997,10.2843729 50.8904103,10.2843729 L48.1477921,10.2843729 L48.1477921,2.34608429 L50.8904103,2.34608429 C51.178997,2.34608429 51.4128337,2.57489259 51.4128337,2.8570452 L51.4128337,9.77341201 Z" id="Shape"></path>
            </g>
            <g id="Group">
                <path d="M15.2365337,1.73288238 C15.2365337,1.63198881 15.1944679,1.53565774 15.1203076,1.46690908 L13.6662871,0.119103615 L13.6662871,9.40266073 L1.65833549,9.40266073 C1.65833549,9.40266073 1.6580239,19.8792092 1.65833549,19.8794166 C1.6580239,19.8792092 3.11921119,21.2325104 3.11973052,21.232303 C3.97807938,21.9842868 5.10139048,22.4415743 6.33043719,22.4415743 L10.3616855,22.4415743 C13.0496344,22.4415743 15.2365337,20.2583119 15.2365337,17.5748331 L15.2365337,1.73288238 Z" id="Shape" fill="#FFFFFF"></path>
                <g id="Shape">
                    <path d="M13.7824093,0.384869534 C13.7824093,0.184430392 13.6196512,0.0219429967 13.4188782,0.0219429967 L8.28581905,0.0219429967 C8.08494215,0.0219429967 7.92228795,0.184430392 7.92228795,0.384869534 L7.92228795,5.55906132 L0.364995706,5.55906132 C0.164118807,5.55906132 0.00146460629,5.72154872 0.00146460629,5.92198786 L0.00146460629,16.2268203 C0.00146460629,18.9102991 2.18825997,21.0935614 4.87631279,21.0935614 L8.90756109,21.0935614 C11.59551,21.0935614 13.7824093,18.9102991 13.7824093,16.2268203 L13.7824093,0.384869534 L13.7824093,0.384869534 Z" fill="#FF0032"></path>
                    <path d="M12.4840839,1.62918909 C12.4840839,1.4573693 12.344488,1.3181092 12.1724858,1.3181092 L9.53221139,1.3181092 C9.36010538,1.3181092 9.2206133,1.4573693 9.2206133,1.62918909 L9.2206133,6.85522753 L1.61138805,6.85522753 C1.43928204,6.85522753 1.29978996,6.99448762 1.29978996,7.16630741 L1.29978996,16.2270276 C1.29978996,18.1957486 2.90410464,19.7976026 4.87631279,19.7976026 L8.90756109,19.7976026 C10.8795615,19.7976026 12.4840839,18.1958523 12.4840839,16.2270276 L12.4840839,1.62918909 L12.4840839,1.62918909 Z M7.20353503,7.4773873 L9.2206133,7.4773873 L9.2206133,9.99744548 L7.20353503,9.99744548 L7.20353503,7.4773873 Z M4.56326058,7.4773873 L6.58033886,7.4773873 L6.58033886,12.6334328 L4.56326058,12.6334328 L4.56326058,7.4773873 Z M1.92298614,7.4773873 L3.94006441,7.4773873 L3.94006441,12.6334328 L1.92298614,12.6334328 L1.92298614,7.4773873 Z M11.8608878,16.2270276 C11.8608878,17.8527311 10.5360766,19.1754428 8.90756109,19.1754428 L4.87631279,19.1754428 C3.2479012,19.1754428 1.92298614,17.8527311 1.92298614,16.2270276 L1.92298614,13.2555925 L6.58033886,13.2555925 C5.85587331,13.8091074 5.38743752,14.6803384 5.38743752,15.6594105 C5.38743752,15.8311266 5.52692959,15.9704904 5.6990356,15.9704904 C5.87114161,15.9704904 6.01063369,15.8311266 6.01063369,15.6594105 C6.01063369,14.3340028 7.09073652,13.2555925 8.4183521,13.2555925 L9.50738741,13.2555925 C9.67949342,13.2555925 9.81898549,13.1162288 9.81898549,12.9445127 C9.81898549,12.7727966 9.67949342,12.6334328 9.50738741,12.6334328 L8.4183521,12.6334328 C7.74748142,12.6334328 7.20353503,12.0904947 7.20353503,11.420636 L7.20353503,10.6196053 L11.8608878,10.6196053 L11.8608878,16.2270276 L11.8608878,16.2270276 Z M11.8608878,9.99744548 L9.84380947,9.99744548 L9.84380947,1.94026898 L11.8608878,1.94026898 L11.8608878,9.99744548 Z" fill="#FFFFFF"></path>
                </g>
            </g>
        </g>
    </g>
</svg>