<?xml version="1.0" encoding="UTF-8"?>
<svg width="685px" height="158px" viewBox="0 0 685 158" version="1.1" xmlns="http://www.w3.org/2000/svg" xmlns:xlink="http://www.w3.org/1999/xlink">
    <!-- Generator: Sketch 51.3 (57544) - http://www.bohemiancoding.com/sketch -->
    <title>Group 3</title>
    <desc>Created with Sketch.</desc>
    <defs></defs>
    <g id="Page-1" stroke="none" stroke-width="1" fill="none" fill-rule="evenodd">
        <g id="Group-3">
            <g id="hand">
                <path d="M174.577046,78.8568355 C174.577046,122.408126 135.496654,157.713493 87.288523,157.713493 C39.0803917,157.713493 0,122.408126 0,78.8568355 C0,35.3053673 39.0803917,3.55271368e-15 87.288523,3.55271368e-15 C135.496654,3.55271368e-15 174.577046,35.3053673 174.577046,78.8568355" id="Fill-1" fill="#FA023C"></path>
                <path d="M117.151137,151.904135 C115.651273,127.455463 113.239947,103.043306 113.571032,78.5223155 C113.603319,76.1318832 112.743515,74.9801295 109.949249,75.0300044 C104.45112,75.1283291 98.9492727,75.0590387 92.4956534,75.0590387 C94.2260241,77.7617234 96.1984471,79.4172136 96.6539829,81.8117428 C96.8465289,82.8247375 97.5840351,84.1216628 96.438934,84.6350179 C94.7095417,85.4102163 94.4054598,83.7655917 93.9029615,82.7493908 C91.4708935,77.832617 87.2577745,75.3410099 81.3964691,74.9526983 C78.9773158,74.7923861 76.5511181,74.539271 74.1734483,74.1167595 C72.8608478,73.8834162 71.6875692,72.995465 71.952907,71.6265773 C72.2430958,70.1287275 73.7766156,70.8536946 74.7563697,70.8031073 C76.8585265,70.6948075 78.9829905,70.8877164 81.0769288,70.7268699 C83.767486,70.5202454 86.550794,66.4036074 86.2071854,63.1900612 C85.8841228,60.1687115 83.2295702,61.0783939 81.3248514,61.049894 C75.6496347,60.9651067 69.9710915,61.0659252 64.2952878,60.9964566 C62.199197,60.9708067 60.762146,61.4841618 60.6674384,63.595651 C60.1715932,74.6413364 61.4526897,85.1959323 71.1195192,93.2476993 C72.6432551,94.5170153 73.5635235,95.5873661 73.3007294,97.7058021 C70.9502587,116.648821 68.7704182,135.609651 66.4236653,154.552848 C73.0033005,155.984613 79.8651018,156.76284 86.9313855,156.76284 C97.5556619,156.76284 107.733991,155.043937 117.151137,151.904135" id="Fill-2" fill="#FFFFFF"></path>
                <path d="M99.3879163,73.1660295 L90.0371051,73.1660295 C89.8750846,73.1660295 89.7435897,73.0465078 89.7435897,72.8988425 L89.7435897,49.9243298 C89.7435897,49.7766645 89.8750846,49.6571429 90.0371051,49.6571429 L99.3879163,49.6571429 C99.5501325,49.6571429 99.6814317,49.7766645 99.6814317,49.9243298 L99.6814317,72.8988425 C99.6814317,73.0465078 99.5501325,73.1660295 99.3879163,73.1660295" id="Fill-3" fill="#FFFFFF"></path>
                <path d="M112.84965,72.7922195 L103.498644,72.7922195 C103.336623,72.7922195 103.205128,72.6726979 103.205128,72.5250326 L103.205128,54.4386155 C103.205128,54.2911283 103.336623,54.1714286 103.498644,54.1714286 L112.84965,54.1714286 C113.011671,54.1714286 113.143166,54.2911283 113.143166,54.4386155 L113.143166,72.5250326 C113.143166,72.6726979 113.011671,72.7922195 112.84965,72.7922195" id="Fill-4" fill="#FFFFFF"></path>
                <path d="M85.9265736,58.0577823 L76.5755666,58.0577823 C76.4135461,58.0577823 76.2820513,57.9382607 76.2820513,57.7905954 L76.2820513,45.4100441 C76.2820513,45.2625569 76.4135461,45.1428571 76.5755666,45.1428571 L85.9265736,45.1428571 C86.088594,45.1428571 86.2200889,45.2625569 86.2200889,45.4100441 L86.2200889,57.7905954 C86.2200889,57.9382607 86.088594,58.0577823 85.9265736,58.0577823" id="Fill-5" fill="#FFFFFF"></path>
                <path d="M70.2212497,59.3119982 L60.8704384,59.3119982 C60.7082223,59.3119982 60.5769231,59.1924765 60.5769231,59.0448112 L60.5769231,20.5814726 C60.5769231,20.4339855 60.7082223,20.3142857 60.8704384,20.3142857 L70.2212497,20.3142857 C70.3832701,20.3142857 70.514765,20.4339855 70.514765,20.5814726 L70.514765,59.0448112 C70.514765,59.1924765 70.3832701,59.3119982 70.2212497,59.3119982" id="Fill-6" fill="#FFFFFF"></path>
            </g>
            <g id="Group" transform="translate(200.000000, 35.000000)" fill="#000000">
                <g id="Line-+-SQWAD">
                    <path d="M38.4559817,5.32907052e-15 C35.3923614,5.32907052e-15 33.0520966,0.0389268745 31.4351852,0.116782405 L31.4351852,19.8530089 L51.604019,19.8530089 L51.604019,28.7284717 L77.38949,28.7284717 L77.38949,5.02164343 C66.6668189,1.67388055 53.6889821,5.32907052e-15 38.4559817,5.32907052e-15 L38.4559817,5.32907052e-15 Z M25.785471,28.9620366 L25.785471,7.10542736e-15 C15.7436038,0.778549964 7.14844741,2.29672123 -7.10542736e-15,4.55451381 L-7.10542736e-15,45.4283557 L52.3368471,55.588425 L52.3368471,84.5504616 C62.3787144,83.7719116 70.9738707,82.2537403 78.1223181,79.9959477 L78.1223181,39.1221058 L25.785471,28.9620366 Z M25.785471,64.9979118 L25.785471,56.122449 L-3.55271368e-15,56.122449 L-3.55271368e-15,79.8292773 C10.7226711,83.1770402 23.7005078,84.8509207 38.9335082,84.8509207 C41.9971285,84.8509207 44.3373934,84.8119938 45.9543048,84.7341383 L45.9543048,64.9979118 L25.785471,64.9979118 Z M174.777934,5.02164343 C162.18305,1.67388055 148.396758,7.10542736e-15 133.419059,7.10542736e-15 C118.441361,7.10542736e-15 104.655069,1.67388055 92.0601852,5.02164343 L92.0601852,80.4630774 C102.527555,83.2658551 114.143782,84.9008088 126.908866,85.3679384 L156.013259,109.425114 L170.437805,91.9077531 L159.332181,83.6162023 C165.03392,82.7597986 170.182503,81.7087569 174.777934,80.4630774 L174.777934,5.02164343 Z M119.00463,65.9827846 L119.00463,20.2040816 L147.598419,20.2040816 L147.598419,65.9827846 L119.00463,65.9827846 Z M310.291752,2.24489796 L282.591518,2.24489796 L272.634752,61.4535775 L259.103762,2.24489796 L233.062989,2.24489796 L219.532,61.4535775 L209.575234,2.24489796 L181.875,2.24489796 L199.490817,83.9925818 L237.65842,83.9925818 L246.211027,43.1187399 L254.635983,83.9925818 L292.675935,83.9925818 L310.291752,2.24489796 Z M365.186273,68.8108691 L369.143449,83.9925818 L396.716032,83.9925818 L371.696466,2.24489796 L332.762958,2.24489796 L307.615741,83.9925818 L334.805371,83.9925818 L338.890198,68.8108691 L365.186273,68.8108691 Z M360.136277,49.4904331 L343.541667,49.4904331 L351.966623,17.9591837 L360.136277,49.4904331 Z M401.921296,2.24489796 L401.921296,83.9925818 L446.471442,83.9925818 C463.746856,83.9925818 476.469391,79.0877207 484.639045,69.2779987 L484.639045,16.959481 C476.469391,7.14975899 463.746856,2.24489796 446.471442,2.24489796 L401.921296,2.24489796 Z M428.865741,22.4489796 L442.26908,22.4489796 C449.332426,22.4489796 454.39591,23.8114416 457.45953,26.5363638 L457.45953,60.5200438 C456.097921,62.0771419 454.268259,63.1281836 451.970544,63.6731687 C449.672829,64.2181539 446.439008,64.4906456 442.26908,64.4906456 L428.865741,64.4906456 L428.865741,22.4489796 Z" id="SQWAD"></path>
                </g>
            </g>
        </g>
    </g>
</svg>