<?xml version="1.0" encoding="UTF-8"?>
<svg width="74px" height="17px" viewBox="0 0 74 17" version="1.1" xmlns="http://www.w3.org/2000/svg" xmlns:xlink="http://www.w3.org/1999/xlink">
    <!-- Generator: Sketch 51.3 (57544) - http://www.bohemiancoding.com/sketch -->
    <title>SQWAD Logo</title>
    <desc>Created with Sketch.</desc>
    <defs></defs>
    <g id="Page-1" stroke="none" stroke-width="1" fill="none" fill-rule="evenodd">
        <g id="SQWAD-Logo">
            <g id="hand">
                <path d="M18.9540793,8.48459623 C18.9540793,13.1704945 14.7110653,16.9691733 9.47703964,16.9691733 C4.24301396,16.9691733 0,13.1704945 0,8.48459623 C0,3.79867876 4.24301396,7.10542736e-15 9.47703964,7.10542736e-15 C14.7110653,7.10542736e-15 18.9540793,3.79867876 18.9540793,8.48459623" id="Fill-1" fill="#FA023C"></path>
                <path d="M12.7192662,16.3441158 C12.5564239,13.7135624 12.2946228,11.086938 12.3305692,8.44860357 C12.3340746,8.19140516 12.2407245,8.06748228 11.937347,8.07284857 C11.3404073,8.08342782 10.7430639,8.07597251 10.0423852,8.07597251 C10.230254,8.36676771 10.4444028,8.54489007 10.493861,8.80252929 C10.514766,8.91152239 10.5948381,9.05106498 10.4705128,9.1062994 C10.2827502,9.18970681 10.2497356,9.01275354 10.1951787,8.90341546 C9.93112558,8.3743955 9.47370124,8.1063112 8.83733094,8.06453083 C8.57468,8.04728205 8.31126425,8.02004815 8.05311725,7.97458804 C7.91060633,7.94948149 7.7832218,7.85394244 7.81202991,7.70665706 C7.84353612,7.54549599 8.01003255,7.62349879 8.11640586,7.61805584 C8.34464002,7.60640334 8.57529611,7.62715936 8.80263798,7.60985309 C9.09475562,7.58762134 9.39694334,7.14469194 9.35963727,6.79893064 C9.32456191,6.47384871 9.03635334,6.57172593 8.8295553,6.56865948 C8.21338891,6.55953679 7.59686137,6.57038436 6.98063125,6.56290989 C6.75305568,6.56015008 6.59703299,6.6153845 6.58675045,6.84257004 C6.53291583,8.03102987 6.67200631,9.16665095 7.7215478,10.0329803 C7.88698198,10.1695523 7.98689683,10.2847166 7.95836491,10.5126496 C7.70317094,12.5508225 7.46650254,14.5909119 7.21171223,16.6291039 C7.92607263,16.7831546 8.6710682,16.8668878 9.43826471,16.8668878 C10.5917576,16.8668878 11.6968333,16.6819426 12.7192662,16.3441158" id="Fill-2" fill="#FFFFFF"></path>
                <path d="M10.7906881,7.87229431 L9.77545712,7.87229431 C9.75786633,7.87229431 9.74358974,7.85943439 9.74358974,7.84354635 L9.74358974,5.3716051 C9.74358974,5.35571706 9.75786633,5.34285714 9.77545712,5.34285714 L10.7906881,5.34285714 C10.8083001,5.34285714 10.8225554,5.35571706 10.8225554,5.3716051 L10.8225554,7.84354635 C10.8225554,7.85943439 10.8083001,7.87229431 10.7906881,7.87229431" id="Fill-3" fill="#FFFFFF"></path>
                <path d="M12.2522478,7.83207425 L11.2369956,7.83207425 C11.2194048,7.83207425 11.2051282,7.81921433 11.2051282,7.80332629 L11.2051282,5.85731939 C11.2051282,5.84145051 11.2194048,5.82857143 11.2369956,5.82857143 L12.2522478,5.82857143 C12.2698386,5.82857143 12.2841151,5.84145051 12.2841151,5.85731939 L12.2841151,7.80332629 C12.2841151,7.81921433 12.2698386,7.83207425 12.2522478,7.83207425" id="Fill-4" fill="#FFFFFF"></path>
                <path d="M9.32917084,6.24672341 L8.31391866,6.24672341 C8.29632787,6.24672341 8.28205128,6.23386349 8.28205128,6.21797545 L8.28205128,4.88589082 C8.28205128,4.87002194 8.29632787,4.85714286 8.31391866,4.85714286 L9.32917084,4.85714286 C9.34676164,4.85714286 9.36103822,4.87002194 9.36103822,4.88589082 L9.36103822,6.21797545 C9.36103822,6.23386349 9.34676164,6.24672341 9.32917084,6.24672341" id="Fill-5" fill="#FFFFFF"></path>
                <path d="M7.62402139,6.38167069 L6.60879046,6.38167069 C6.59117842,6.38167069 6.57692308,6.36881077 6.57692308,6.35292273 L6.57692308,2.21446225 C6.57692308,2.19859337 6.59117842,2.18571429 6.60879046,2.18571429 L7.62402139,2.18571429 C7.64161219,2.18571429 7.65588877,2.19859337 7.65588877,2.21446225 L7.65588877,6.35292273 C7.65588877,6.36881077 7.64161219,6.38167069 7.62402139,6.38167069" id="Fill-6" fill="#FFFFFF"></path>
            </g>
            <g id="Group" transform="translate(21.000000, 4.000000)" fill="#FFFFFF">
                <g id="Line-+-SQWAD">
                    <path d="M4.20240625,4.4408921e-15 C3.86761888,4.4408921e-15 3.61187859,0.0042664119 3.43518519,0.012799431 L3.43518519,2.17590327 L5.63920207,2.17590327 L5.63920207,3.14866003 L8.45699581,3.14866003 L8.45699581,0.550375534 C7.28524,0.183458446 5.86704341,4.4408921e-15 4.20240625,4.4408921e-15 L4.20240625,4.4408921e-15 Z M2.81779374,3.17425889 L2.81779374,3.55271368e-15 C1.72043505,0.0853296052 0.781170542,0.251722208 -3.55271368e-15,0.49917781 L-3.55271368e-15,4.97897866 L5.71928432,6.09252916 L5.71928432,9.26678805 C6.81664301,9.18145845 7.75590752,9.01506585 8.53707806,8.76761024 L8.53707806,4.28780939 L2.81779374,3.17425889 Z M2.81779374,7.12381531 L2.81779374,6.15105855 L-3.55271368e-15,6.15105855 L-3.55271368e-15,8.74934305 C1.17175581,9.11626014 2.5899524,9.29971858 4.25458956,9.29971858 C4.58937693,9.29971858 4.84511722,9.29545217 5.02181063,9.28691915 L5.02181063,7.12381531 L2.81779374,7.12381531 Z M19.0994443,0.550375534 C17.7230961,0.183458446 16.216553,4.4408921e-15 14.5798147,4.4408921e-15 C12.9430765,4.4408921e-15 11.4365334,0.183458446 10.0601852,0.550375534 L10.0601852,8.81880797 C11.204042,9.12599431 12.4734442,9.30518635 13.8683916,9.35638407 L17.0488716,11.9930669 L18.6251622,10.0731522 L17.411558,9.16439261 C18.0346345,9.07053018 18.5972632,8.9553353 19.0994443,8.81880797 L19.0994443,0.550375534 Z M13.0046296,7.23175804 L13.0046296,2.21438108 L16.1293118,2.21438108 L16.1293118,7.23175804 L13.0046296,7.23175804 Z M33.9081708,0.246042342 L30.881135,0.246042342 L29.793076,6.73535387 L28.3144317,0.246042342 L25.4687391,0.246042342 L23.9900948,6.73535387 L22.9020358,0.246042342 L19.875,0.246042342 L21.8000274,9.20564405 L25.9709201,9.20564405 L26.9055349,4.7258432 L27.8262002,9.20564405 L31.9831434,9.20564405 L33.9081708,0.246042342 Z M39.9069535,7.54171802 L40.3393872,9.20564405 L43.3524736,9.20564405 L40.6183767,0.246042342 L36.3637871,0.246042342 L33.6157407,9.20564405 L36.5869787,9.20564405 L37.0333619,7.54171802 L39.9069535,7.54171802 Z M39.3550983,5.42418511 L37.5416667,5.42418511 L38.4623319,1.96833874 L39.3550983,5.42418511 Z M43.9212963,0.246042342 L43.9212963,9.20564405 L48.7896627,9.20564405 C50.6774914,9.20564405 52.0677891,8.66806795 52.9605554,7.59291574 L52.9605554,1.85877065 C52.0677891,0.783618445 50.6774914,0.246042342 48.7896627,0.246042342 L43.9212963,0.246042342 Z M46.8657407,2.46042342 L48.3304355,2.46042342 C49.1023063,2.46042342 49.6556355,2.60975018 49.9904229,2.90840351 L49.9904229,6.63303793 C49.8416284,6.80369695 49.6416861,6.91889183 49.3905955,6.97862257 C49.139505,7.03835331 48.7861184,7.06821859 48.3304355,7.06821859 L46.8657407,7.06821859 L46.8657407,2.46042342 Z" id="SQWAD"></path>
                </g>
            </g>
        </g>
    </g>
</svg>